<svg width="70" height="12" viewBox="0 0 70 12" fill="none" xmlns="http://www.w3.org/2000/svg">
<path d="M0.409091 12V0.363621H4.34091C5.25 0.363621 5.99621 0.518924 6.57955 0.82953C7.16288 1.13635 7.5947 1.5587 7.875 2.09658C8.1553 2.63445 8.29545 3.2462 8.29545 3.9318C8.29545 4.61741 8.1553 5.22536 7.875 5.75567C7.5947 6.28597 7.16477 6.70264 6.58523 7.00567C6.00568 7.30491 5.26515 7.45453 4.36364 7.45453H1.18182V6.1818H4.31818C4.93939 6.1818 5.43939 6.09089 5.81818 5.90908C6.20076 5.72726 6.47727 5.46968 6.64773 5.13635C6.82197 4.79923 6.90909 4.39771 6.90909 3.9318C6.90909 3.46589 6.82197 3.0587 6.64773 2.71021C6.47349 2.36173 6.19508 2.09279 5.8125 1.90339C5.42992 1.71021 4.92424 1.61362 4.29545 1.61362H1.81818V12H0.409091ZM5.88636 6.77271L8.75 12H7.11364L4.29545 6.77271H5.88636ZM11.1207 12H9.64347L13.9162 0.363621H15.3707L19.6435 12H18.1662L14.6889 2.20453H14.598L11.1207 12ZM11.6662 7.45453H17.6207V8.70453H11.6662V7.45453ZM21.456 12V0.363621H28.4332V1.61362H22.8651V5.54544H27.9105V6.79544H22.8651V12H21.456ZM29.8707 12H28.3935L32.6662 0.363621H34.1207L38.3935 12H36.9162L33.4389 2.20453H33.348L29.8707 12ZM30.4162 7.45453H36.3707V8.70453H30.4162V7.45453Z" fill="#959595"/>
<path d="M39.8082 12V0.363621H44.3991C45.2817 0.363621 46.0336 0.532181 46.6548 0.869303C47.276 1.20264 47.7495 1.66665 48.0753 2.26135C48.4048 2.85226 48.5696 3.53408 48.5696 4.3068C48.5696 5.07953 48.4029 5.76135 48.0696 6.35226C47.7363 6.94317 47.2533 7.40339 46.6207 7.73294C45.992 8.06248 45.2306 8.22726 44.3366 8.22726H41.4105V6.25567H43.9389C44.4124 6.25567 44.8026 6.17423 45.1094 6.01135C45.42 5.84468 45.651 5.61551 45.8026 5.32385C45.9579 5.02839 46.0355 4.68938 46.0355 4.3068C46.0355 3.92044 45.9579 3.58332 45.8026 3.29544C45.651 3.00377 45.42 2.77839 45.1094 2.6193C44.7988 2.45642 44.4048 2.37498 43.9276 2.37498H42.2685V12H39.8082ZM50.8295 12H48.1932L52.2102 0.363621H55.3807L59.392 12H56.7557L53.8409 3.02271H53.75L50.8295 12ZM50.6648 7.42612H56.892V9.34658H50.6648V7.42612ZM58.9233 0.363621H61.679L64.3324 5.37498H64.446L67.0994 0.363621H69.8551L65.6108 7.88635V12H63.1676V7.88635L58.9233 0.363621Z" fill="white"/>
</svg>
